<svg width="15" height="16" viewBox="0 0 15 16" fill="none" xmlns="http://www.w3.org/2000/svg">
	<path fill-rule="evenodd" clip-rule="evenodd" d="M13.5002 14.4502C13.7487 14.4502 13.9502 14.2487 13.9502 14.0002C13.9502 13.7517 13.7487 13.5502 13.5002 13.5502L1.5002 13.5502C1.25167 13.5502 1.05019 13.7517 1.05019 14.0002C1.05019 14.2487 1.25167 14.4502 1.50019 14.4502L13.5002 14.4502ZM11.0684 8.06855C11.2441 7.89281 11.2441 7.60789 11.0684 7.43215C10.8926 7.25642 10.6077 7.25642 10.432 7.43215L7.95017 9.91395L7.95017 2.00023C7.95017 1.7517 7.7487 1.55023 7.50017 1.55023C7.25164 1.55023 7.05017 1.7517 7.05017 2.00023L7.05017 9.91395L4.56837 7.43215C4.39263 7.25642 4.10771 7.25642 3.93197 7.43215C3.75624 7.60789 3.75624 7.89281 3.93197 8.06855L7.18197 11.3185C7.35771 11.4943 7.64263 11.4943 7.81837 11.3185L11.0684 8.06855Z" fill="#30A46C">
	</path>
</svg>
